<svg xmlns="http://www.w3.org/2000/svg" viewBox="0 0 448 512"><defs><linearGradient id="a" x1="0%" y1="0%" y2="0%"><stop offset="0%" stop-color="#238c84"/><stop offset="100%" stop-color="#1d7770"/></linearGradient></defs><path fill="url(#a)" d="M12 192h424c6.6 0 12 5.4 12 12v260c0 26.5-21.5 48-48 48H48c-26.5 0-48-21.5-48-48V204c0-6.6 5.4-12 12-12zm436-44v-36c0-26.5-21.5-48-48-48h-48V12c0-6.6-5.4-12-12-12h-40c-6.6 0-12 5.4-12 12v52H160V12c0-6.6-5.4-12-12-12h-40c-6.6 0-12 5.4-12 12v52H48C21.5 64 0 85.5 0 112v36c0 6.6 5.4 12 12 12h424c6.6 0 12-5.4 12-12z"/></svg>