<svg id="icon" xmlns="http://www.w3.org/2000/svg" viewBox="0 0 64 64"><defs><style>.cls-1{fill:#fff;}</style></defs><title>job-profile-icons</title><path class="cls-1" d="M41.6,19.38a7,7,0,0,0-2.66-3.07,8.05,8.05,0,0,0-4.53-1.23,7,7,0,0,0-2.91.58,6.23,6.23,0,0,0-2.19,1.63,7.33,7.33,0,0,0-1.39,2.53,10,10,0,0,0-.45,3.32l.07,5.2H38v9.11H27.55V48.54H49.3V58H12.77V48.54h4.3V37.45h-4.3V28.34h4.3V22.49a18.82,18.82,0,0,1,1.28-7.15,15.06,15.06,0,0,1,9-8.71,20,20,0,0,1,6.91-1.16,24.2,24.2,0,0,1,5,.51,19.63,19.63,0,0,1,4.44,1.48,16.28,16.28,0,0,1,3.66,2.38A13,13,0,0,1,50.1,13.1Z"/></svg>